<svg width="25" height="25" viewBox="0 0 25 25" fill="none" xmlns="http://www.w3.org/2000/svg">
<g clip-path="url(#clip0_40_1488)">
<g clip-path="url(#clip1_40_1488)">
<g clip-path="url(#clip2_40_1488)">
<path opacity="0.01" fill-rule="evenodd" clip-rule="evenodd" d="M24.2852 0.5H0.285156V24.5H24.2852V0.5Z" fill="#F8931F"/>
<path fill-rule="evenodd" clip-rule="evenodd" d="M8.49212 9.2072C8.10159 8.81667 7.46843 8.81667 7.0779 9.2072L6.99212 9.29298C6.60159 9.68351 6.60159 10.3167 6.99212 10.7072L12.0779 15.793C12.4684 16.1835 13.1016 16.1835 13.4921 15.793L18.5779 10.7072C18.9684 10.3167 18.9684 9.68351 18.5779 9.29298L18.4921 9.2072C18.1016 8.81667 17.4684 8.81667 17.0779 9.2072L12.785 13.5001L8.49212 9.2072Z" fill="black"/>
</g>
</g>
</g>
<defs>
<clipPath id="clip0_40_1488">
<rect width="24" height="24" fill="white" transform="translate(0.285156 0.5)"/>
</clipPath>
<clipPath id="clip1_40_1488">
<rect width="24" height="24" fill="white" transform="translate(0.285156 0.5)"/>
</clipPath>
<clipPath id="clip2_40_1488">
<rect width="24" height="24" fill="white" transform="translate(0.285156 0.5)"/>
</clipPath>
</defs>
</svg>
