<svg width="29" height="29" viewBox="0 0 29 29" fill="none" xmlns="http://www.w3.org/2000/svg">
<path d="M21.0521 18.6911C22.7468 16.3786 23.5058 13.5115 23.1774 10.6634C22.8489 7.81522 21.4571 5.19614 19.2805 3.33009C17.1039 1.46403 14.303 0.48863 11.4381 0.599019C8.57324 0.709408 5.85568 1.89745 3.82912 3.92546C1.80257 5.95346 0.616471 8.67188 0.508132 11.5368C0.399793 14.4018 1.3772 17.202 3.24481 19.3773C5.11242 21.5526 7.7325 22.9424 10.5809 23.2689C13.4292 23.5953 16.2958 22.8342 18.6071 21.1379H18.6054C18.6567 21.2079 18.7139 21.275 18.7769 21.3392L25.5151 28.0773C25.8432 28.4057 26.2884 28.5903 26.7527 28.5905C27.217 28.5906 27.6623 28.4064 27.9907 28.0782C28.3191 27.75 28.5037 27.3048 28.5038 26.8406C28.504 26.3763 28.3197 25.931 27.9916 25.6026L21.2534 18.8644C21.1909 18.801 21.1236 18.7443 21.0521 18.6911ZM21.5037 11.9635C21.5037 13.2276 21.2547 14.4793 20.7709 15.6472C20.2872 16.815 19.5781 17.8762 18.6843 18.7701C17.7904 19.6639 16.7293 20.3729 15.5614 20.8567C14.3935 21.3405 13.1418 21.5894 11.8777 21.5894C10.6136 21.5894 9.36189 21.3405 8.19401 20.8567C7.02614 20.3729 5.96498 19.6639 5.07112 18.7701C4.17727 17.8762 3.46823 16.815 2.98448 15.6472C2.50073 14.4793 2.25175 13.2276 2.25175 11.9635C2.25175 9.41051 3.26591 6.96211 5.07113 5.15689C6.87634 3.35167 9.32474 2.33751 11.8777 2.33751C14.4307 2.33751 16.8791 3.35167 18.6843 5.15689C20.4895 6.96211 21.5037 9.41051 21.5037 11.9635Z" fill="black"/>
</svg>
