<svg width="33" height="33" viewBox="0 0 33 33" fill="none" xmlns="http://www.w3.org/2000/svg">
<g clip-path="url(#clip0_40_1087)">
<path fill-rule="evenodd" clip-rule="evenodd" d="M16.6665 0.666504C7.8297 0.666504 0.666504 7.8409 0.666504 16.6937C0.666504 23.7737 5.2505 29.7817 11.6089 31.9001C12.4089 32.0473 12.7001 31.5529 12.7001 31.1273C12.7001 30.7481 12.6873 29.7385 12.6793 28.4025C8.2281 29.3705 7.2889 26.2537 7.2889 26.2537C6.5625 24.4009 5.5129 23.9081 5.5129 23.9081C4.0601 22.9161 5.6233 22.9353 5.6233 22.9353C7.2281 23.0473 8.0729 24.5865 8.0729 24.5865C9.5001 27.0345 11.8185 26.3273 12.7289 25.9177C12.8761 24.8825 13.2889 24.1769 13.7465 23.7769C10.1945 23.3721 6.4585 21.9961 6.4585 15.8553C6.4585 14.1065 7.0825 12.6745 8.1049 11.5545C7.9401 11.1497 7.3913 9.5193 8.2617 7.3145C8.2617 7.3145 9.6057 6.8825 12.6617 8.9561C13.9669 8.60013 15.3136 8.41881 16.6665 8.4169C18.0265 8.4233 19.3945 8.6009 20.6729 8.9561C23.7273 6.8825 25.0681 7.3129 25.0681 7.3129C25.9417 9.5193 25.3913 11.1497 25.2281 11.5545C26.2521 12.6745 26.8729 14.1065 26.8729 15.8553C26.8729 22.0121 23.1305 23.3673 19.5673 23.7641C20.1417 24.2585 20.6521 25.2361 20.6521 26.7321C20.6521 28.8729 20.6329 30.6025 20.6329 31.1273C20.6329 31.5561 20.9209 32.0553 21.7337 31.8985C24.9198 30.8299 27.6894 28.787 29.6513 26.0586C31.6131 23.3302 32.6679 20.0542 32.6665 16.6937C32.6665 7.8409 25.5017 0.666504 16.6665 0.666504Z" fill="#98A2B3"/>
</g>
<defs>
<clipPath id="clip0_40_1087">
<rect width="32" height="32" fill="white" transform="translate(0.666504 0.666504)"/>
</clipPath>
</defs>
</svg>
