<svg width="33" height="33" viewBox="0 0 33 33" fill="none" xmlns="http://www.w3.org/2000/svg">
<g clip-path="url(#clip0_40_1089)">
<path d="M24.3606 14.129C25.0919 12.0915 27.1981 6.19775 27.1981 4.31025C27.1981 2.64775 26.2169 1.254 24.4669 1.254C21.6794 1.254 19.1794 9.48525 18.3981 11.4478C17.7919 9.6665 14.9544 0.666504 12.4544 0.666504C10.5106 0.666504 9.5981 2.09775 9.5981 3.89775C9.5981 6.104 11.7356 11.8228 12.5106 14.0228C12.1169 13.879 11.6919 13.754 11.2606 13.754C9.7981 13.754 8.24185 15.5728 8.24185 17.0415C8.24185 17.5978 8.5481 18.379 8.74185 18.8978C6.4356 19.5228 5.5481 21.0603 5.5481 23.379C5.54185 27.8915 9.81685 32.6665 15.8294 32.6665C23.2044 32.6665 27.7919 27.129 27.7919 19.9853C27.7919 17.2915 27.3606 14.8603 24.3606 14.129ZM22.1481 7.4165C22.3981 6.64775 23.4669 3.39775 24.4669 3.39775C25.0044 3.39775 25.1481 3.954 25.1481 4.39775C25.1481 5.5915 22.7356 12.1853 22.2044 13.6478L20.0794 13.2728L22.1481 7.4165ZM11.5606 3.68525C11.5606 2.9415 12.4669 0.829004 14.4544 6.629L16.6169 12.8978C15.6419 12.8165 14.8856 12.7103 14.4044 12.9853C13.7231 11.1853 11.5606 5.504 11.5606 3.68525ZM11.4169 15.9165C13.2481 15.9165 15.6106 21.829 15.6106 22.629C15.6106 22.9478 15.3044 23.3415 14.9481 23.3415C13.6419 23.3415 10.1419 18.5353 10.1419 17.2353C10.1481 16.754 10.9356 15.9165 11.4169 15.9165ZM22.9356 27.5603C21.1169 29.5603 18.7919 30.5978 16.0794 30.5978C12.3669 30.5978 9.4356 28.5603 8.0231 25.079C6.95435 22.3665 8.2606 20.8103 9.3106 20.8103C10.0231 20.8103 12.7044 24.579 12.7044 25.379C12.7044 25.6853 12.2231 25.8978 11.9731 25.8978C10.9669 25.8978 10.5731 24.929 8.77935 22.6853C6.9231 24.5415 10.0606 28.1165 12.4231 28.1165C14.0544 28.1165 15.1169 26.604 14.7981 25.4915C15.0294 25.4915 15.3169 25.5103 15.5294 25.454C15.5981 27.1478 16.0981 29.1665 18.1356 29.3103C18.1356 29.254 18.2606 28.8665 18.2606 28.8478C18.2606 27.7603 17.5981 26.8103 17.5981 25.704C17.5981 23.9353 18.9544 22.2228 20.3294 21.2228C20.8294 20.8478 21.4356 20.6165 22.0231 20.404C22.6294 20.1728 23.2731 19.904 23.7356 19.4415C23.6669 18.7415 23.3794 18.1228 22.6794 18.1228C20.9481 18.1228 15.1419 18.3728 15.1419 15.6415C15.1419 15.2228 15.1481 14.8228 16.2294 14.8228C18.2481 14.8228 23.3731 15.3228 24.8731 16.6415C26.0044 17.6478 26.3919 23.7165 22.9356 27.5603ZM16.7731 19.6853C17.3794 19.879 18.0044 19.9353 18.6294 20.0603C18.1669 20.3978 17.7544 20.8103 17.3606 21.254C17.1856 20.7228 16.9731 20.204 16.7731 19.6853Z" fill="#98A2B3"/>
</g>
<defs>
<clipPath id="clip0_40_1089">
<rect width="32" height="32" fill="white" transform="translate(0.666504 0.666504)"/>
</clipPath>
</defs>
</svg>
