<svg width="33" height="33" viewBox="0 0 33 33" fill="none" xmlns="http://www.w3.org/2000/svg">
<path fill-rule="evenodd" clip-rule="evenodd" d="M16.6667 0.666504C7.83378 0.666504 0.666748 7.83353 0.666748 16.6665C0.666748 25.4995 7.83378 32.6665 16.6667 32.6665C25.4823 32.6665 32.6667 25.4995 32.6667 16.6665C32.6667 7.83353 25.4823 0.666504 16.6667 0.666504ZM27.235 8.04177C29.1439 10.3672 30.2893 13.3346 30.324 16.545C29.8728 16.4583 25.3608 15.5385 20.8142 16.1112C20.7101 15.8856 20.6233 15.6426 20.5192 15.3997C20.2415 14.7403 19.9292 14.0635 19.6168 13.4214C24.6493 11.3737 26.94 8.42355 27.235 8.04177ZM16.6667 3.02659C20.1374 3.02659 23.3131 4.32811 25.7253 6.4626C25.4823 6.80967 23.4172 9.56889 18.5582 11.391C16.3196 7.27821 13.8381 3.91162 13.4563 3.39101C14.4801 3.14806 15.5561 3.02659 16.6667 3.02659ZM10.8533 4.31075C11.2177 4.79665 13.6472 8.1806 15.9205 12.2066C9.53443 13.9073 3.89452 13.8726 3.28714 13.8726C4.17217 9.6383 7.03551 6.11552 10.8533 4.31075ZM2.99213 16.6839C2.99213 16.545 2.99213 16.4062 2.99213 16.2674C3.58215 16.2847 10.2112 16.3715 17.0311 14.3238C17.4303 15.0873 17.7947 15.8682 18.1418 16.6491C17.9682 16.7012 17.7773 16.7533 17.6038 16.8053C10.5583 19.0786 6.80992 25.2912 6.49755 25.8118C4.32835 23.3997 2.99213 20.1893 2.99213 16.6839ZM16.6667 30.3411C13.5083 30.3411 10.593 29.2652 8.28497 27.4604C8.52792 26.9572 11.3044 21.6123 19.0094 18.9225C19.0441 18.9051 19.0615 18.9051 19.0962 18.8878C21.0224 23.8682 21.8034 28.0504 22.0116 29.2478C20.363 29.9593 18.5582 30.3411 16.6667 30.3411ZM24.2849 27.9984C24.1461 27.1654 23.4172 23.1741 21.6298 18.263C25.9162 17.5862 29.6645 18.6969 30.1331 18.8531C29.5431 22.6535 27.3565 25.9333 24.2849 27.9984Z" fill="#98A2B3"/>
</svg>
