<svg width="33" height="33" viewBox="0 0 33 33" fill="none" xmlns="http://www.w3.org/2000/svg">
<g clip-path="url(#clip0_40_1085)">
<path d="M32.6665 16.6665C32.6665 7.82994 25.5031 0.666504 16.6665 0.666504C7.82994 0.666504 0.666504 7.82994 0.666504 16.6665C0.666504 24.6524 6.51744 31.2718 14.1665 32.4721V21.2915H10.104V16.6665H14.1665V13.1415C14.1665 9.1315 16.5553 6.9165 20.2099 6.9165C21.9599 6.9165 23.7915 7.229 23.7915 7.229V11.1665H21.774C19.7865 11.1665 19.1665 12.3999 19.1665 13.6665V16.6665H23.604L22.8946 21.2915H19.1665V32.4721C26.8156 31.2718 32.6665 24.6524 32.6665 16.6665Z" fill="#98A2B3"/>
</g>
<defs>
<clipPath id="clip0_40_1085">
<rect width="32" height="32" fill="white" transform="translate(0.666504 0.666504)"/>
</clipPath>
</defs>
</svg>
