<svg width="25" height="25" viewBox="0 0 25 25" fill="none" xmlns="http://www.w3.org/2000/svg">
<g clip-path="url(#clip0_40_1524)">
<g clip-path="url(#clip1_40_1524)">
<g clip-path="url(#clip2_40_1524)">
<path opacity="0.01" fill-rule="evenodd" clip-rule="evenodd" d="M24.2549 0.5H0.254883V24.5H24.2549V0.5Z" fill="#F8931F"/>
<path fill-rule="evenodd" clip-rule="evenodd" d="M8.46209 9.2072C8.07156 8.81667 7.4384 8.81667 7.04787 9.2072L6.96209 9.29298C6.57156 9.68351 6.57156 10.3167 6.96209 10.7072L12.0479 15.793C12.4384 16.1835 13.0716 16.1835 13.4621 15.793L18.5479 10.7072C18.9384 10.3167 18.9384 9.68351 18.5479 9.29298L18.4621 9.2072C18.0716 8.81667 17.4384 8.81667 17.0479 9.2072L12.755 13.5001L8.46209 9.2072Z" fill="#465166"/>
</g>
</g>
</g>
<defs>
<clipPath id="clip0_40_1524">
<rect width="24" height="24" fill="white" transform="translate(0.254883 0.5)"/>
</clipPath>
<clipPath id="clip1_40_1524">
<rect width="24" height="24" fill="white" transform="translate(0.254883 0.5)"/>
</clipPath>
<clipPath id="clip2_40_1524">
<rect width="24" height="24" fill="white" transform="translate(0.254883 0.5)"/>
</clipPath>
</defs>
</svg>
