<svg width="25" height="25" viewBox="0 0 25 25" fill="none" xmlns="http://www.w3.org/2000/svg">
<g clip-path="url(#clip0_40_354)">
<g clip-path="url(#clip1_40_354)">
<path opacity="0.01" fill-rule="evenodd" clip-rule="evenodd" d="M24.5 0.590576H0.5V24.5906H24.5V0.590576Z" fill="#F8931F"/>
<path fill-rule="evenodd" clip-rule="evenodd" d="M8.7072 9.29778C8.31667 8.90725 7.68351 8.90725 7.29298 9.29778L7.2072 9.38356C6.81667 9.77409 6.81667 10.4072 7.2072 10.7978L12.293 15.8836C12.6835 16.2741 13.3167 16.2741 13.7072 15.8836L18.793 10.7978C19.1835 10.4072 19.1835 9.77409 18.793 9.38356L18.7072 9.29778C18.3167 8.90725 17.6835 8.90725 17.293 9.29778L13.0001 13.5907L8.7072 9.29778Z" fill="#465166"/>
</g>
</g>
<defs>
<clipPath id="clip0_40_354">
<rect width="24" height="24" fill="white" transform="translate(0.5 0.590576)"/>
</clipPath>
<clipPath id="clip1_40_354">
<rect width="24" height="24" fill="white" transform="translate(0.5 0.590576)"/>
</clipPath>
</defs>
</svg>
