<svg width="33" height="33" viewBox="0 0 33 33" fill="none" xmlns="http://www.w3.org/2000/svg">
<g clip-path="url(#clip0_40_1082)">
<path d="M30.2985 0.658936H3.02974C1.72349 0.658936 0.667236 1.69019 0.667236 2.96519V30.3464C0.667236 31.6214 1.72349 32.6589 3.02974 32.6589H30.2985C31.6047 32.6589 32.6672 31.6214 32.6672 30.3527V2.96519C32.6672 1.69019 31.6047 0.658936 30.2985 0.658936ZM10.161 27.9277H5.41099V12.6527H10.161V27.9277ZM7.78599 10.5714C6.26099 10.5714 5.02974 9.34018 5.02974 7.82143C5.02974 6.30269 6.26099 5.07143 7.78599 5.07143C9.30474 5.07143 10.536 6.30269 10.536 7.82143C10.536 9.33393 9.30474 10.5714 7.78599 10.5714ZM27.936 27.9277H23.1922V20.5027C23.1922 18.7339 23.161 16.4527 20.7235 16.4527C18.2547 16.4527 17.8797 18.3839 17.8797 20.3777V27.9277H13.1422V12.6527H17.6922V14.7402H17.7547C18.386 13.5402 19.936 12.2714 22.2422 12.2714C27.0485 12.2714 27.936 15.4339 27.936 19.5464V27.9277Z" fill="#98A2B3"/>
</g>
<defs>
<clipPath id="clip0_40_1082">
<rect width="32" height="32" fill="white" transform="translate(0.666504 0.666504)"/>
</clipPath>
</defs>
</svg>
