<svg width="129" height="23" viewBox="0 0 129 23" fill="none" xmlns="http://www.w3.org/2000/svg">
<path d="M11.5186 4.44428C11.8942 3.40163 13.5294 3.40163 13.905 4.44428L15.2468 8.16962C15.4148 8.63591 15.8965 8.95161 16.44 8.95161H20.7823C21.9977 8.95161 22.503 10.3545 21.5198 10.9989L18.0067 13.3013C17.567 13.5895 17.383 14.1003 17.551 14.5666L18.8928 18.2919C19.2684 19.3346 17.9455 20.2016 16.9622 19.5572L13.4492 17.2548C13.0095 16.9666 12.4141 16.9666 11.9744 17.2548L8.46135 19.5572C7.47812 20.2016 6.1552 19.3346 6.53076 18.2919L7.87261 14.5666C8.04057 14.1003 7.85658 13.5895 7.41686 13.3013L3.90384 10.9989C2.92061 10.3545 3.42592 8.95161 4.64126 8.95161H8.9836C9.52711 8.95161 10.0088 8.63591 10.1768 8.16962L11.5186 4.44428Z" fill="#F59E0B"/>
<path d="M37.3936 4.44428C37.7692 3.40163 39.4044 3.40163 39.78 4.44428L41.1218 8.16962C41.2898 8.63591 41.7715 8.95161 42.315 8.95161H46.6573C47.8727 8.95161 48.378 10.3545 47.3948 10.9989L43.8817 13.3013C43.442 13.5895 43.258 14.1003 43.426 14.5666L44.7678 18.2919C45.1434 19.3346 43.8205 20.2016 42.8372 19.5572L39.3242 17.2548C38.8845 16.9666 38.2891 16.9666 37.8494 17.2548L34.3364 19.5572C33.3531 20.2016 32.0302 19.3346 32.4058 18.2919L33.7476 14.5666C33.9156 14.1003 33.7316 13.5895 33.2919 13.3013L29.7788 10.9989C28.7956 10.3545 29.3009 8.95161 30.5163 8.95161H34.8586C35.4021 8.95161 35.8838 8.63591 36.0518 8.16962L37.3936 4.44428Z" fill="#F59E0B"/>
<path d="M63.2696 4.44428C63.6452 3.40163 65.2804 3.40163 65.6559 4.44428L66.9978 8.16962C67.1658 8.63591 67.6475 8.95161 68.191 8.95161H72.5333C73.7487 8.95161 74.254 10.3545 73.2707 10.9989L69.7577 13.3013C69.318 13.5895 69.134 14.1003 69.302 14.5666L70.6438 18.2919C71.0194 19.3346 69.6965 20.2016 68.7132 19.5572L65.2002 17.2548C64.7605 16.9666 64.1651 16.9666 63.7254 17.2548L60.2123 19.5572C59.2291 20.2016 57.9062 19.3346 58.2817 18.2919L59.6236 14.5666C59.7915 14.1003 59.6076 13.5895 59.1678 13.3013L55.6548 10.9989C54.6716 10.3545 55.1769 8.95161 56.3922 8.95161H60.7346C61.2781 8.95161 61.7598 8.63591 61.9277 8.16962L63.2696 4.44428Z" fill="#F59E0B"/>
<path d="M89.1456 4.44428C89.5211 3.40163 91.1564 3.40163 91.5319 4.44428L92.8738 8.16962C93.0417 8.63591 93.5234 8.95161 94.067 8.95161H98.4093C99.6246 8.95161 100.13 10.3545 99.1467 10.9989L95.6337 13.3013C95.194 13.5895 95.01 14.1003 95.1779 14.5666L96.5198 18.2919C96.8954 19.3346 95.5724 20.2016 94.5892 19.5572L91.0762 17.2548C90.6365 16.9666 90.041 16.9666 89.6013 17.2548L86.0883 19.5572C85.1051 20.2016 83.7822 19.3346 84.1577 18.2919L85.4996 14.5666C85.6675 14.1003 85.4835 13.5895 85.0438 13.3013L81.5308 10.9989C80.5476 10.3545 81.0529 8.95161 82.2682 8.95161H86.6105C87.1541 8.95161 87.6358 8.63591 87.8037 8.16962L89.1456 4.44428Z" fill="#F59E0B"/>
<path d="M115.022 4.44428C115.397 3.40163 117.032 3.40163 117.408 4.44428L118.75 8.16962C118.918 8.63591 119.399 8.95161 119.943 8.95161H124.285C125.501 8.95161 126.006 10.3545 125.023 10.9989L121.51 13.3013C121.07 13.5895 120.886 14.1003 121.054 14.5666L122.396 18.2919C122.771 19.3346 121.448 20.2016 120.465 19.5572L116.952 17.2548C116.512 16.9666 115.917 16.9666 115.477 17.2548L111.964 19.5572C110.981 20.2016 109.658 19.3346 110.034 18.2919L111.376 14.5666C111.543 14.1003 111.36 13.5895 110.92 13.3013L107.407 10.9989C106.424 10.3545 106.929 8.95161 108.144 8.95161H112.487C113.03 8.95161 113.512 8.63591 113.68 8.16962L115.022 4.44428Z" fill="#D4D4D8"/>
</svg>
