<svg width="129" height="23" viewBox="0 0 129 23" fill="none" xmlns="http://www.w3.org/2000/svg">
<path d="M11.5186 4.44422C11.8942 3.40157 13.5294 3.40157 13.905 4.44422L15.2468 8.16956C15.4148 8.63585 15.8965 8.95155 16.44 8.95155H20.7823C21.9977 8.95155 22.503 10.3544 21.5198 10.9988L18.0067 13.3012C17.567 13.5894 17.383 14.1002 17.551 14.5665L18.8928 18.2918C19.2684 19.3345 17.9455 20.2015 16.9622 19.5571L13.4492 17.2547C13.0095 16.9666 12.4141 16.9666 11.9744 17.2547L8.46135 19.5571C7.47812 20.2015 6.1552 19.3345 6.53076 18.2918L7.87261 14.5665C8.04057 14.1002 7.85658 13.5894 7.41686 13.3012L3.90384 10.9988C2.92061 10.3544 3.42592 8.95155 4.64126 8.95155H8.9836C9.52711 8.95155 10.0088 8.63585 10.1768 8.16956L11.5186 4.44422Z" fill="#F59E0B"/>
<path d="M37.3936 4.44422C37.7692 3.40157 39.4044 3.40157 39.78 4.44422L41.1218 8.16956C41.2898 8.63585 41.7715 8.95155 42.315 8.95155H46.6573C47.8727 8.95155 48.378 10.3544 47.3948 10.9988L43.8817 13.3012C43.442 13.5894 43.258 14.1002 43.426 14.5665L44.7678 18.2918C45.1434 19.3345 43.8205 20.2015 42.8372 19.5571L39.3242 17.2547C38.8845 16.9666 38.2891 16.9666 37.8494 17.2547L34.3364 19.5571C33.3531 20.2015 32.0302 19.3345 32.4058 18.2918L33.7476 14.5665C33.9156 14.1002 33.7316 13.5894 33.2919 13.3012L29.7788 10.9988C28.7956 10.3544 29.3009 8.95155 30.5163 8.95155H34.8586C35.4021 8.95155 35.8838 8.63585 36.0518 8.16956L37.3936 4.44422Z" fill="#F59E0B"/>
<path d="M63.2696 4.44422C63.6452 3.40157 65.2804 3.40157 65.6559 4.44422L66.9978 8.16956C67.1658 8.63585 67.6475 8.95155 68.191 8.95155H72.5333C73.7487 8.95155 74.254 10.3544 73.2707 10.9988L69.7577 13.3012C69.318 13.5894 69.134 14.1002 69.302 14.5665L70.6438 18.2918C71.0194 19.3345 69.6965 20.2015 68.7132 19.5571L65.2002 17.2547C64.7605 16.9666 64.1651 16.9666 63.7254 17.2547L60.2123 19.5571C59.2291 20.2015 57.9062 19.3345 58.2817 18.2918L59.6236 14.5665C59.7915 14.1002 59.6076 13.5894 59.1678 13.3012L55.6548 10.9988C54.6716 10.3544 55.1769 8.95155 56.3922 8.95155H60.7346C61.2781 8.95155 61.7598 8.63585 61.9277 8.16956L63.2696 4.44422Z" fill="#F59E0B"/>
<path d="M89.1456 4.44422C89.5211 3.40157 91.1564 3.40157 91.5319 4.44422L92.8738 8.16956C93.0417 8.63585 93.5234 8.95155 94.067 8.95155H98.4093C99.6246 8.95155 100.13 10.3544 99.1467 10.9988L95.6337 13.3012C95.194 13.5894 95.01 14.1002 95.1779 14.5665L96.5198 18.2918C96.8954 19.3345 95.5724 20.2015 94.5892 19.5571L91.0762 17.2547C90.6365 16.9666 90.041 16.9666 89.6013 17.2547L86.0883 19.5571C85.1051 20.2015 83.7822 19.3345 84.1577 18.2918L85.4996 14.5665C85.6675 14.1002 85.4835 13.5894 85.0438 13.3012L81.5308 10.9988C80.5476 10.3544 81.0529 8.95155 82.2682 8.95155H86.6105C87.1541 8.95155 87.6358 8.63585 87.8037 8.16956L89.1456 4.44422Z" fill="#F59E0B"/>
<path d="M115.022 4.44422C115.397 3.40157 117.032 3.40157 117.408 4.44422L118.75 8.16956C118.918 8.63585 119.399 8.95155 119.943 8.95155H124.285C125.501 8.95155 126.006 10.3544 125.023 10.9988L121.51 13.3012C121.07 13.5894 120.886 14.1002 121.054 14.5665L122.396 18.2918C122.771 19.3345 121.448 20.2015 120.465 19.5571L116.952 17.2547C116.512 16.9666 115.917 16.9666 115.477 17.2547L111.964 19.5571C110.981 20.2015 109.658 19.3345 110.034 18.2918L111.376 14.5665C111.543 14.1002 111.36 13.5894 110.92 13.3012L107.407 10.9988C106.424 10.3544 106.929 8.95155 108.144 8.95155H112.487C113.03 8.95155 113.512 8.63585 113.68 8.16956L115.022 4.44422Z" fill="#F59E0B"/>
</svg>
